<?xml version="1.0" encoding="UTF-8" standalone="no"?>
<svg
   xmlns:dc="http://purl.org/dc/elements/1.1/"
   xmlns:cc="http://creativecommons.org/ns#"
   xmlns:rdf="http://www.w3.org/1999/02/22-rdf-syntax-ns#"
   xmlns:svg="http://www.w3.org/2000/svg"
   xmlns="http://www.w3.org/2000/svg"
   xmlns:xlink="http://www.w3.org/1999/xlink"
   xmlns:sodipodi="http://sodipodi.sourceforge.net/DTD/sodipodi-0.dtd"
   xmlns:inkscape="http://www.inkscape.org/namespaces/inkscape"
   id="svg"
   version="1.1"
   width="400"
   height="400"
   viewBox="0, 0, 400,400"
   sodipodi:docname="toolcase-icon.svg"
   inkscape:version="1.0.2 (e86c870, 2021-01-15)">
  <metadata
     id="metadata11">
    <rdf:RDF>
      <cc:Work
         rdf:about="">
        <dc:format>image/svg+xml</dc:format>
        <dc:type
           rdf:resource="http://purl.org/dc/dcmitype/StillImage" />
      </cc:Work>
    </rdf:RDF>
  </metadata>
  <defs
     id="defs9">
    <marker
       style="overflow:visible"
       id="marker1176"
       refX="0.0"
       refY="0.0"
       orient="auto"
       inkscape:stockid="Arrow1Lstart"
       inkscape:isstock="true">
      <path
         transform="scale(0.8) translate(12.5,0)"
         style="fill-rule:evenodd;stroke:#000000;stroke-width:1pt;stroke-opacity:1;fill:#000000;fill-opacity:1"
         d="M 0.0,0.0 L 5.0,-5.0 L -12.5,0.0 L 5.0,5.0 L 0.0,0.0 z "
         id="path1174" />
    </marker>
    <marker
       style="overflow:visible"
       id="marker1154"
       refX="0.0"
       refY="0.0"
       orient="auto"
       inkscape:stockid="Arrow1Lstart"
       inkscape:isstock="true">
      <path
         transform="scale(0.8) translate(12.5,0)"
         style="fill-rule:evenodd;stroke:#000000;stroke-width:1pt;stroke-opacity:1;fill:#000000;fill-opacity:1"
         d="M 0.0,0.0 L 5.0,-5.0 L -12.5,0.0 L 5.0,5.0 L 0.0,0.0 z "
         id="path1152" />
    </marker>
    <marker
       style="overflow:visible"
       id="Arrow1Lstart"
       refX="0.0"
       refY="0.0"
       orient="auto"
       inkscape:stockid="Arrow1Lstart"
       inkscape:isstock="true">
      <path
         transform="scale(0.8) translate(12.5,0)"
         style="fill-rule:evenodd;stroke:#000000;stroke-width:1pt;stroke-opacity:1;fill:#000000;fill-opacity:1"
         d="M 0.0,0.0 L 5.0,-5.0 L -12.5,0.0 L 5.0,5.0 L 0.0,0.0 z "
         id="path876" />
    </marker>
    <clipPath
       clipPathUnits="userSpaceOnUse"
       id="clipPath847">
      <use
         x="0"
         y="0"
         xlink:href="#g843"
         id="use849"
         transform="translate(20.787368,32.387612)"
         width="100%"
         height="100%" />
    </clipPath>
    <linearGradient
       x1="0"
       y1="0"
       x2="1"
       y2="0"
       gradientUnits="userSpaceOnUse"
       gradientTransform="matrix(510.59384,0,0,510.59384,201.67481,51.451044)"
       spreadMethod="pad"
       id="linearGradient76">
      <stop
         style="stop-opacity:1;stop-color:#00deeb"
         offset="0"
         id="stop70" />
      <stop
         style="stop-opacity:1;stop-color:#00deeb"
         offset="0.30806861"
         id="stop72" />
      <stop
         style="stop-opacity:1;stop-color:#003988"
         offset="1"
         id="stop74" />
    </linearGradient>
  </defs>
  <sodipodi:namedview
     pagecolor="#ffffff"
     bordercolor="#666666"
     borderopacity="1"
     objecttolerance="10"
     gridtolerance="10"
     guidetolerance="10"
     inkscape:pageopacity="0"
     inkscape:pageshadow="2"
     inkscape:window-width="1366"
     inkscape:window-height="703"
     id="namedview7"
     showgrid="false"
     inkscape:zoom="0.86663138"
     inkscape:cx="143.11954"
     inkscape:cy="210.97579"
     inkscape:window-x="0"
     inkscape:window-y="0"
     inkscape:window-maximized="1"
     inkscape:current-layer="g843"
     inkscape:document-rotation="0" />
  <g
     inkscape:label="Clip"
     id="g843"
     transform="translate(-20.787368,-32.387612)">
    <path
       d="m 300.76431,236.0167 c -2.10604,4.16148 -4.65917,7.28405 -6.8299,9.49009 1.24126,1.32128 2.48252,2.64255 3.72379,3.96382 -1.97661,1.65306 -6.524,5.00095 -13.25978,6.07043 -5.11213,0.8136 -9.30067,-0.0312 -11.67142,-0.69652 -5.65335,2.73197 -9.95367,5.4504 -12.76564,7.37407 -6.45928,4.40797 -12.52443,9.68775 -18.2366,15.43464 15.31875,15.49347 30.63162,30.99164 45.95037,46.48923 4.30619,4.35444 4.15324,11.40494 -0.33532,15.56995 l -4.17677,3.87381 c -4.42973,4.11147 -11.35964,3.81027 -15.41288,-0.66947 -14.11278,-15.60171 -28.23145,-31.19871 -42.34423,-46.79984 -14.13042,17.60538 -25.75479,35.66905 -35.60845,45.28974 -1.8766,1.83777 -5.61217,5.29802 -10.70076,5.45098 -3.18259,0.0941 -6.85932,-1.01125 -10.81843,-4.37267 -3.30023,-2.83491 -4.72387,-5.62099 -4.98859,-8.24529 -0.60005,-6.02103 4.89447,-11.27848 7.26522,-13.45334 0,0 20.78974,-19.08372 41.04413,-39.92875 -10.07131,-11.1261 -20.13674,-22.25632 -30.20805,-33.38241 -0.52946,-0.58416 -1.11772,-1.1142 -1.76484,-1.56834 -1.47069,-1.03302 -2.89432,-1.90955 -4.30619,-2.5702 -6.50635,-3.0508 -14.11866,1.10126 -15.21874,8.20531 -0.74123,4.78093 -1.42364,9.86306 -5.2945,13.67804 -1.76484,1.73895 -4.46503,2.12074 -6.67695,1.01125 -5.53569,-2.76843 -12.47737,-7.61232 -16.65414,-12.95035 -2.72961,-3.48671 -2.04721,-8.57356 1.56482,-11.12609 2.91197,-2.04898 6.1122,-2.46665 8.95946,-3.13611 3.22376,-0.76417 4.89448,-3.23082 6.95345,-5.33392 15.00696,-15.29227 24.97239,-30.99928 42.07361,-37.44093 2.99434,-1.12361 7.55937,-2.79432 13.61864,-2.50017 14.00101,0.67651 23.47227,11.21256 26.46073,14.83636 -5.17684,-0.94125 -15.8188,-2.02368 -25.80775,3.67673 -2.94138,1.67659 -10.07719,5.75336 -10.68312,12.10676 -0.27648,2.91785 0.49416,6.13102 3.0767,8.74593 10.03013,10.15072 20.07203,20.30617 30.10217,30.45689 11.7832,-13.17036 20.91327,-25.09592 21.72509,-31.17577 0.0706,-0.54357 1.52952,-4.46797 1.63542,-10.05073 0.0647,-3.26495 1.94718,-8.30648 1.94718,-8.30648 l 0.006,0.11175 c 1.72365,-2.35899 9.58304,-12.52443 23.58993,-14.73635 8.04764,-1.27068 14.59517,0.63533 17.94836,1.89426 -5.98867,4.63561 -11.97734,9.27124 -17.96601,13.90687 0.0706,3.65321 0.14707,7.30052 0.22355,10.95373 2.8355,0.87065 5.67688,1.74719 8.51237,2.61784 6.3887,-5.15919 12.78328,-10.31839 19.17198,-15.47759 0.50591,4.18266 0.97654,13.23625 -3.8238,22.71282 z m 30.53749,-96.20047 h -1.32951 -223.25726 -1.32951 -13.748039 -0.0295 v 257.4715 h 13.748039 1.32951 223.28669 1.3295 18.66605 v -257.4715 z m -255.941964,0 V 397.25185 H 44.221123 c -10.14191,0 -18.436628,-8.29531 -18.436628,-18.43722 V 158.25874 c 0,-10.14191 8.294718,-18.44251 18.436628,-18.44251 z m 290.856244,0 h 31.13754 c 10.14191,0 18.43662,8.3006 18.43662,18.44251 v 220.55589 c 0,10.14191 -8.29471,18.43722 -18.43662,18.43722 H 366.21608 Z M 183.65587,67.487495 h 74.23477 c 23.10753,0 41.99125,18.883713 41.99125,41.991265 v 22.4075 h -26.76075 v -22.50751 c 0,-8.08881 -6.62989,-14.695172 -14.68929,-14.695172 h -75.28778 c -8.08882,0 -14.6893,6.635772 -14.6893,14.695172 v 22.50751 h -26.76076 v -22.4075 c -0.0295,-23.107552 18.88373,-41.991265 41.96186,-41.991265 v 0"
       style="fill:#1976d2;fill-opacity:1;fill-rule:nonzero;stroke:none;stroke-width:0.0588276"
       id="path78" />
  </g>
</svg>
